<mxfile host="app.diagrams.net" agent="Mozilla/5.0 (Windows NT 10.0; Win64; x64) AppleWebKit/537.36 (KHTML, like Gecko) Chrome/131.0.0.0 Safari/537.36" version="24.8.6">
  <diagram name="Page-1" id="s_wA-QoDq7gC5YwQgdNy">
    <mxGraphModel dx="1259" dy="686" grid="1" gridSize="10" guides="1" tooltips="1" connect="1" arrows="1" fold="1" page="1" pageScale="1" pageWidth="850" pageHeight="1100" math="0" shadow="0">
      <root>
        <mxCell id="0" />
        <mxCell id="1" parent="0" />
        <mxCell id="23EwcwxgouCQYGJw3CgD-87" value="" style="rounded=0;whiteSpace=wrap;html=1;fillColor=#f5f5f5;gradientColor=#b3b3b3;strokeColor=#666666;" vertex="1" parent="1">
          <mxGeometry x="40" y="105" width="930" height="395" as="geometry" />
        </mxCell>
        <mxCell id="23EwcwxgouCQYGJw3CgD-61" value="" style="rounded=0;whiteSpace=wrap;html=1;fillColor=#dae8fc;gradientColor=#7ea6e0;strokeColor=#6c8ebf;" vertex="1" parent="1">
          <mxGeometry x="120" y="170" width="420" height="230" as="geometry" />
        </mxCell>
        <mxCell id="23EwcwxgouCQYGJw3CgD-62" value="" style="sketch=0;points=[[0,0,0],[0.25,0,0],[0.5,0,0],[0.75,0,0],[1,0,0],[0,1,0],[0.25,1,0],[0.5,1,0],[0.75,1,0],[1,1,0],[0,0.25,0],[0,0.5,0],[0,0.75,0],[1,0.25,0],[1,0.5,0],[1,0.75,0]];outlineConnect=0;fontColor=#232F3E;fillColor=#ED7100;strokeColor=#ffffff;dashed=0;verticalLabelPosition=bottom;verticalAlign=top;align=center;html=1;fontSize=12;fontStyle=0;aspect=fixed;shape=mxgraph.aws4.resourceIcon;resIcon=mxgraph.aws4.ec2;" vertex="1" parent="1">
          <mxGeometry x="130" y="180" width="40" height="40" as="geometry" />
        </mxCell>
        <mxCell id="23EwcwxgouCQYGJw3CgD-63" value="&lt;b&gt;&lt;font face=&quot;Comic Sans MS&quot; style=&quot;font-size: 17px;&quot;&gt;EC2&lt;/font&gt;&lt;/b&gt;" style="text;html=1;align=center;verticalAlign=middle;resizable=0;points=[];autosize=1;strokeColor=none;fillColor=none;" vertex="1" parent="1">
          <mxGeometry x="210" y="170" width="60" height="30" as="geometry" />
        </mxCell>
        <mxCell id="23EwcwxgouCQYGJw3CgD-70" style="edgeStyle=orthogonalEdgeStyle;rounded=0;orthogonalLoop=1;jettySize=auto;html=1;entryX=0;entryY=0.5;entryDx=0;entryDy=0;flowAnimation=1;" edge="1" parent="1" source="23EwcwxgouCQYGJw3CgD-66" target="23EwcwxgouCQYGJw3CgD-69">
          <mxGeometry relative="1" as="geometry" />
        </mxCell>
        <mxCell id="23EwcwxgouCQYGJw3CgD-66" value="" style="sketch=0;aspect=fixed;pointerEvents=1;shadow=0;dashed=0;html=1;strokeColor=none;labelPosition=center;verticalLabelPosition=bottom;verticalAlign=top;align=center;fillColor=#00188D;shape=mxgraph.azure.file" vertex="1" parent="1">
          <mxGeometry x="270" y="239" width="75.2" height="80" as="geometry" />
        </mxCell>
        <mxCell id="23EwcwxgouCQYGJw3CgD-67" value="" style="sketch=0;outlineConnect=0;fontColor=#232F3E;gradientColor=none;fillColor=#232F3D;strokeColor=none;dashed=0;verticalLabelPosition=bottom;verticalAlign=top;align=center;html=1;fontSize=12;fontStyle=0;aspect=fixed;pointerEvents=1;shape=mxgraph.aws4.user;" vertex="1" parent="1">
          <mxGeometry x="130" y="241" width="78" height="78" as="geometry" />
        </mxCell>
        <mxCell id="23EwcwxgouCQYGJw3CgD-68" style="edgeStyle=orthogonalEdgeStyle;rounded=0;orthogonalLoop=1;jettySize=auto;html=1;entryX=0;entryY=0.5;entryDx=0;entryDy=0;entryPerimeter=0;flowAnimation=1;" edge="1" parent="1" source="23EwcwxgouCQYGJw3CgD-67" target="23EwcwxgouCQYGJw3CgD-66">
          <mxGeometry relative="1" as="geometry" />
        </mxCell>
        <mxCell id="23EwcwxgouCQYGJw3CgD-69" value="&lt;b&gt;File System&lt;/b&gt;" style="rounded=1;whiteSpace=wrap;html=1;fillColor=#d5e8d4;gradientColor=#97d077;strokeColor=#82b366;" vertex="1" parent="1">
          <mxGeometry x="390" y="254" width="90" height="50" as="geometry" />
        </mxCell>
        <mxCell id="23EwcwxgouCQYGJw3CgD-71" value="" style="rounded=1;whiteSpace=wrap;html=1;fillColor=#d5e8d4;gradientColor=#97d077;strokeColor=#82b366;" vertex="1" parent="1">
          <mxGeometry x="610" y="165" width="300" height="240" as="geometry" />
        </mxCell>
        <mxCell id="23EwcwxgouCQYGJw3CgD-72" value="" style="outlineConnect=0;dashed=0;verticalLabelPosition=bottom;verticalAlign=top;align=center;html=1;shape=mxgraph.aws3.volume;fillColor=#E05243;gradientColor=none;" vertex="1" parent="1">
          <mxGeometry x="860" y="340" width="40" height="50" as="geometry" />
        </mxCell>
        <mxCell id="23EwcwxgouCQYGJw3CgD-73" value="&lt;b&gt;&lt;font face=&quot;Comic Sans MS&quot; style=&quot;font-size: 17px;&quot;&gt;EBS&lt;/font&gt;&lt;/b&gt;" style="text;html=1;align=center;verticalAlign=middle;resizable=0;points=[];autosize=1;strokeColor=none;fillColor=none;" vertex="1" parent="1">
          <mxGeometry x="730" y="165" width="60" height="30" as="geometry" />
        </mxCell>
        <mxCell id="23EwcwxgouCQYGJw3CgD-75" value="&lt;b&gt;&lt;font face=&quot;Comic Sans MS&quot;&gt;Block&lt;/font&gt;&lt;/b&gt;" style="rounded=1;whiteSpace=wrap;html=1;fillColor=#fff2cc;gradientColor=#ffd966;strokeColor=#d6b656;" vertex="1" parent="1">
          <mxGeometry x="640" y="200" width="80" height="30" as="geometry" />
        </mxCell>
        <mxCell id="23EwcwxgouCQYGJw3CgD-76" value="&lt;b&gt;&lt;font face=&quot;Comic Sans MS&quot;&gt;Block&lt;/font&gt;&lt;/b&gt;" style="rounded=1;whiteSpace=wrap;html=1;fillColor=#f5f5f5;gradientColor=#b3b3b3;strokeColor=#666666;" vertex="1" parent="1">
          <mxGeometry x="640" y="254" width="80" height="30" as="geometry" />
        </mxCell>
        <mxCell id="23EwcwxgouCQYGJw3CgD-77" value="&lt;b&gt;&lt;font face=&quot;Comic Sans MS&quot;&gt;Block&lt;/font&gt;&lt;/b&gt;" style="rounded=1;whiteSpace=wrap;html=1;fillColor=#dae8fc;gradientColor=#7ea6e0;strokeColor=#6c8ebf;" vertex="1" parent="1">
          <mxGeometry x="640" y="310" width="80" height="30" as="geometry" />
        </mxCell>
        <mxCell id="23EwcwxgouCQYGJw3CgD-78" value="&lt;b&gt;&lt;font face=&quot;Comic Sans MS&quot;&gt;Block&lt;/font&gt;&lt;/b&gt;" style="rounded=1;whiteSpace=wrap;html=1;fillColor=#ffcd28;gradientColor=#ffa500;strokeColor=#d79b00;" vertex="1" parent="1">
          <mxGeometry x="640" y="360" width="80" height="30" as="geometry" />
        </mxCell>
        <mxCell id="23EwcwxgouCQYGJw3CgD-79" value="&lt;b&gt;&lt;font face=&quot;Comic Sans MS&quot;&gt;Block&lt;/font&gt;&lt;/b&gt;" style="rounded=1;whiteSpace=wrap;html=1;fillColor=#e6d0de;gradientColor=#d5739d;strokeColor=#996185;" vertex="1" parent="1">
          <mxGeometry x="740" y="200" width="80" height="30" as="geometry" />
        </mxCell>
        <mxCell id="23EwcwxgouCQYGJw3CgD-80" value="&lt;b&gt;&lt;font face=&quot;Comic Sans MS&quot;&gt;Block&lt;/font&gt;&lt;/b&gt;" style="rounded=1;whiteSpace=wrap;html=1;fillColor=#f8cecc;gradientColor=#ea6b66;strokeColor=#b85450;" vertex="1" parent="1">
          <mxGeometry x="740" y="254" width="80" height="30" as="geometry" />
        </mxCell>
        <mxCell id="23EwcwxgouCQYGJw3CgD-81" value="&lt;b&gt;&lt;font face=&quot;Comic Sans MS&quot;&gt;Block&lt;/font&gt;&lt;/b&gt;" style="rounded=1;whiteSpace=wrap;html=1;" vertex="1" parent="1">
          <mxGeometry x="740" y="310" width="80" height="30" as="geometry" />
        </mxCell>
        <mxCell id="23EwcwxgouCQYGJw3CgD-82" value="&lt;b&gt;&lt;font face=&quot;Comic Sans MS&quot;&gt;Block&lt;/font&gt;&lt;/b&gt;" style="rounded=1;whiteSpace=wrap;html=1;fillColor=#fff2cc;gradientColor=#ffd966;strokeColor=#d6b656;" vertex="1" parent="1">
          <mxGeometry x="740" y="360" width="80" height="30" as="geometry" />
        </mxCell>
        <mxCell id="23EwcwxgouCQYGJw3CgD-83" style="edgeStyle=orthogonalEdgeStyle;rounded=0;orthogonalLoop=1;jettySize=auto;html=1;entryX=0;entryY=0.5;entryDx=0;entryDy=0;flowAnimation=1;" edge="1" parent="1" source="23EwcwxgouCQYGJw3CgD-69" target="23EwcwxgouCQYGJw3CgD-75">
          <mxGeometry relative="1" as="geometry" />
        </mxCell>
        <mxCell id="23EwcwxgouCQYGJw3CgD-84" style="edgeStyle=orthogonalEdgeStyle;rounded=0;orthogonalLoop=1;jettySize=auto;html=1;entryX=0;entryY=0.5;entryDx=0;entryDy=0;flowAnimation=1;" edge="1" parent="1" source="23EwcwxgouCQYGJw3CgD-69" target="23EwcwxgouCQYGJw3CgD-76">
          <mxGeometry relative="1" as="geometry" />
        </mxCell>
        <mxCell id="23EwcwxgouCQYGJw3CgD-85" style="edgeStyle=orthogonalEdgeStyle;rounded=0;orthogonalLoop=1;jettySize=auto;html=1;entryX=0;entryY=0.5;entryDx=0;entryDy=0;flowAnimation=1;" edge="1" parent="1" source="23EwcwxgouCQYGJw3CgD-69" target="23EwcwxgouCQYGJw3CgD-77">
          <mxGeometry relative="1" as="geometry" />
        </mxCell>
        <mxCell id="23EwcwxgouCQYGJw3CgD-86" style="edgeStyle=orthogonalEdgeStyle;rounded=0;orthogonalLoop=1;jettySize=auto;html=1;entryX=0;entryY=0.5;entryDx=0;entryDy=0;flowAnimation=1;" edge="1" parent="1" source="23EwcwxgouCQYGJw3CgD-69" target="23EwcwxgouCQYGJw3CgD-78">
          <mxGeometry relative="1" as="geometry" />
        </mxCell>
      </root>
    </mxGraphModel>
  </diagram>
</mxfile>
